<svg width="134" height="161" viewBox="0 0 134 161" fill="none" xmlns="http://www.w3.org/2000/svg">
<g filter="url(#filter0_dddd_2_169)">
<path fill-rule="evenodd" clip-rule="evenodd" d="M65.9648 7.57587C63.4669 9.20634 59.7442 11.0017 56.5838 12.1003C52.1433 13.6438 48.0635 14.4289 42.9482 14.7243L41.25 14.8223L41.2504 27.912C41.251 41.2686 41.3043 42.9262 41.8294 45.9123C42.1233 47.5837 42.9584 50.7854 43.3359 51.6885L43.5586 52.221L44.0303 51.9379C44.2896 51.7822 45.4329 51.1192 46.5708 50.4645C47.9983 49.6429 48.6157 49.2118 48.5626 49.0735C48.331 48.4705 47.7182 45.9853 47.4449 44.5402C47.1433 42.9466 47.1282 42.434 47.072 31.8849L47.0135 20.8906L47.3475 20.5156C47.6409 20.1863 47.9191 20.103 49.6302 19.832C54.6784 19.0325 59.7715 17.3818 64.5072 15.0104C65.5451 14.4907 66.5262 14.0655 66.6874 14.0655C66.8485 14.0655 67.8738 14.5127 68.9657 15.0591C73.5925 17.3746 78.7496 19.0358 83.8149 19.8424C85.4514 20.103 85.7361 20.1896 86.0261 20.5145L86.3588 20.8872L86.3076 31.8111C86.2586 42.2574 86.2427 42.811 85.9434 44.4763C85.3369 47.8509 84.3345 50.8078 82.7929 53.769C81.7721 55.7301 81.6239 55.5874 85.2786 56.1616C86.5608 56.3631 87.6873 56.5279 87.7818 56.5279C88.0001 56.5279 89.169 54.0481 89.9261 51.9784C90.5931 50.1554 91.4255 46.8939 91.7875 44.6847C92.0078 43.3409 92.0419 41.5523 92.0877 28.9779L92.1393 14.7877L91.6625 14.7871C90.6608 14.7858 87.0739 14.4774 85.6211 14.2677C79.4158 13.3715 73.3964 11.2042 67.9537 7.90632C67.2517 7.48098 66.6634 7.13709 66.6463 7.14214C66.6293 7.1472 66.3226 7.34247 65.9648 7.57587ZM64.8809 17.3994C60.713 19.4555 55.3083 21.2164 50.8888 21.9579L49.3265 22.22L49.3847 32.4775C49.4389 42.0406 49.4626 42.8376 49.7353 44.2514C50.0482 45.8726 50.588 47.9703 50.7668 48.2593C50.8509 48.3954 51.2018 48.3728 52.3137 48.1598C54.8437 47.6751 56.9731 47.5322 60.4524 47.6137C64.7483 47.7142 67.4652 48.1884 70.7344 49.4084C71.8694 49.8319 75.5431 51.7365 79.2198 53.8074L79.9728 54.2316L80.9928 52.1712C82.5679 48.9895 83.5 45.8148 83.8783 42.3433C83.9698 41.5042 84.0312 37.1808 84.0312 31.579V22.2172L82.505 21.9592C78.0605 21.2077 73.0129 19.5724 68.5823 17.4485C67.518 16.9382 66.6399 16.526 66.6311 16.5324C66.6225 16.5388 65.8348 16.9289 64.8809 17.3994ZM77.71 26.0191L79.4058 27.7181L71.2761 35.8305C62.4569 44.6311 62.8664 44.2865 61.5205 44.0398C61.0563 43.9546 60.4754 43.4397 57.472 40.4513L53.9656 36.9623L55.7011 35.2281L57.4365 33.4938L59.7503 35.8025L62.0639 38.1112L68.9644 31.2156C72.7597 27.4231 75.8985 24.3201 75.9395 24.3201C75.9807 24.3201 76.7774 25.0847 77.71 26.0191ZM56.2812 49.98C53.472 50.1763 51.1111 50.6558 49.8638 51.2831C49.4585 51.487 47.5985 52.5393 45.7305 53.6214L42.334 55.5891L39.5156 55.6613C36.788 55.7312 36.6705 55.7467 35.8678 56.1406C34.9545 56.5887 34.1938 57.4052 33.7469 58.4171C33.3807 59.2462 32 64.7489 32 65.3793C32 66.7884 33.0198 68.2169 34.5698 68.9796C35.4614 69.4184 35.6611 69.4581 37.2018 69.5046L38.869 69.5551L39.0287 68.5413C39.6656 64.4991 43.6616 61.808 47.531 62.8151C50.2368 63.5193 52.2852 65.7749 52.719 68.5271L52.8765 69.5266H66.1094H79.3422L79.4998 68.5271C80.1344 64.4994 84.137 61.8097 87.9998 62.8151C90.7056 63.5193 92.754 65.7749 93.1877 68.5271L93.3453 69.5266L96.0232 69.5257C97.4961 69.5253 98.9516 69.4555 99.2578 69.3705C100.342 69.0696 101.375 67.6468 101.375 66.4537C101.375 66.2517 101.085 65.1543 100.731 64.0152C100.125 62.0658 100.048 61.9085 99.4279 61.3406C99.0651 61.0087 98.5527 60.666 98.289 60.579C98.0253 60.4921 94.2706 59.8767 89.9449 59.2116L82.0801 58.0021L76.5156 54.9611C71.9231 52.4512 70.6446 51.8176 69.196 51.3338C65.933 50.2439 63.367 49.8695 59.4304 49.9094C58.0561 49.9233 56.639 49.9551 56.2812 49.98ZM58.5938 54.736V57.2771L57.1846 57.1845C52.1742 56.8555 46.0506 56.3183 45.9293 56.197C45.842 56.1098 51.0365 53.2496 51.6857 53.0277C52.7853 52.6514 55.4918 52.2922 57.7627 52.221L58.5938 52.195V54.736ZM63.1883 52.3491C66.9108 52.7577 68.9637 53.4696 73.3844 55.884C75.2258 56.8899 76.7798 57.7567 76.8376 57.8105C76.8955 57.8642 76.0499 57.8896 74.9587 57.8669C71.1667 57.7881 63.428 57.5313 62.1709 57.4424L60.9062 57.353V54.7741V52.195H61.3455C61.5871 52.195 62.4165 52.2643 63.1883 52.3491ZM44.791 65.0302C43.4609 65.3794 42.2931 66.3363 41.6827 67.5768C41.1948 68.5685 41.1822 70.4313 41.6569 71.4087C42.1526 72.4294 42.7403 73.0436 43.7323 73.5781C44.5702 74.0296 44.7491 74.0705 45.875 74.0676C46.9189 74.0649 47.2144 74.0068 47.8416 73.6811C48.9308 73.1155 49.3844 72.6779 49.9313 71.6643C50.3798 70.8333 50.4224 70.6478 50.4224 69.5266C50.4224 68.4045 50.3799 68.2204 49.9294 67.3854C49.1173 65.8805 47.861 65.0719 46.1804 64.9727C45.6547 64.9417 45.0295 64.9675 44.791 65.0302ZM85.2598 65.0302C83.9296 65.3794 82.7618 66.3363 82.1515 67.5768C81.6635 68.5685 81.651 70.4313 82.1256 71.4087C82.6213 72.4294 83.209 73.0436 84.2011 73.5781C85.0389 74.0296 85.2178 74.0705 86.3438 74.0676C87.3877 74.0649 87.6831 74.0068 88.3104 73.6811C89.3996 73.1155 89.8531 72.6779 90.4 71.6643C90.8485 70.8333 90.8911 70.6478 90.8911 69.5266C90.8911 68.4045 90.8486 68.2204 90.3981 67.3854C89.586 65.8805 88.3298 65.0719 86.6491 64.9727C86.1235 64.9417 85.4982 64.9675 85.2598 65.0302Z" fill="url(#paint0_linear_2_169)"/>
</g>
<defs>
<filter id="filter0_dddd_2_169" x="0" y="0.14209" width="133.375" height="159.926" filterUnits="userSpaceOnUse" color-interpolation-filters="sRGB">
<feFlood flood-opacity="0" result="BackgroundImageFix"/>
<feColorMatrix in="SourceAlpha" type="matrix" values="0 0 0 0 0 0 0 0 0 0 0 0 0 0 0 0 0 0 127 0" result="hardAlpha"/>
<feOffset/>
<feColorMatrix type="matrix" values="0 0 0 0 0.701961 0 0 0 0 0.701961 0 0 0 0 0.701961 0 0 0 0.03 0"/>
<feBlend mode="normal" in2="BackgroundImageFix" result="effect1_dropShadow_2_169"/>
<feColorMatrix in="SourceAlpha" type="matrix" values="0 0 0 0 0 0 0 0 0 0 0 0 0 0 0 0 0 0 127 0" result="hardAlpha"/>
<feOffset dy="6"/>
<feGaussianBlur stdDeviation="6.5"/>
<feColorMatrix type="matrix" values="0 0 0 0 0.701961 0 0 0 0 0.701961 0 0 0 0 0.701961 0 0 0 0.03 0"/>
<feBlend mode="normal" in2="effect1_dropShadow_2_169" result="effect2_dropShadow_2_169"/>
<feColorMatrix in="SourceAlpha" type="matrix" values="0 0 0 0 0 0 0 0 0 0 0 0 0 0 0 0 0 0 127 0" result="hardAlpha"/>
<feOffset dy="24"/>
<feGaussianBlur stdDeviation="12"/>
<feColorMatrix type="matrix" values="0 0 0 0 0.701961 0 0 0 0 0.701961 0 0 0 0 0.701961 0 0 0 0.03 0"/>
<feBlend mode="normal" in2="effect2_dropShadow_2_169" result="effect3_dropShadow_2_169"/>
<feColorMatrix in="SourceAlpha" type="matrix" values="0 0 0 0 0 0 0 0 0 0 0 0 0 0 0 0 0 0 127 0" result="hardAlpha"/>
<feOffset dy="54"/>
<feGaussianBlur stdDeviation="16"/>
<feColorMatrix type="matrix" values="0 0 0 0 0.701961 0 0 0 0 0.701961 0 0 0 0 0.701961 0 0 0 0.02 0"/>
<feBlend mode="normal" in2="effect3_dropShadow_2_169" result="effect4_dropShadow_2_169"/>
<feBlend mode="normal" in="SourceGraphic" in2="effect4_dropShadow_2_169" result="shape"/>
</filter>
<linearGradient id="paint0_linear_2_169" x1="31.0872" y1="50.8446" x2="111.878" y2="73.8896" gradientUnits="userSpaceOnUse">
<stop stop-color="#FCB346"/>
<stop offset="1" stop-color="#FFC85F"/>
</linearGradient>
</defs>
</svg>
