<svg width="138" height="146" viewBox="0 0 138 146" fill="none" xmlns="http://www.w3.org/2000/svg">
<g filter="url(#filter0_dddd_2_157)">
<path fill-rule="evenodd" clip-rule="evenodd" d="M65.0254 7.34519C64.7074 7.37552 63.6343 7.47214 62.6406 7.55996C55.6158 8.18043 49.3478 10.1964 46.7639 12.6663C45.1518 14.2072 43.5573 16.8813 41.8919 20.8373L41.1318 22.6426L37.1801 22.7148C33.6805 22.7788 33.1844 22.817 32.8435 23.0483C32.4298 23.329 32 24.098 32 24.5575C32 25.1642 33.1824 30.4602 33.3878 30.7735C33.8276 31.4442 34.429 31.6683 35.7902 31.6689L37.0509 31.6695L36.2884 32.7888C35.4383 34.0366 34.728 35.6243 34.3553 37.1103C33.9798 38.608 34.0224 41.9129 34.4371 43.4405C35.0003 45.5156 36.2549 47.7531 37.5504 48.9933L38.0703 49.491L38.0735 53.3984C38.077 57.7482 38.1371 58.0778 39.068 58.8606C39.8463 59.515 40.2958 59.5686 44.5858 59.5186L48.572 59.4722L49.0923 59.0754C50.158 58.2626 50.2751 57.958 50.3555 55.7893L50.4277 53.8395H69H87.5723L87.6445 55.7893C87.7249 57.958 87.842 58.2626 88.9077 59.0754L89.428 59.4722L93.4142 59.5186C97.7042 59.5686 98.1537 59.515 98.932 58.8606C99.8593 58.0808 99.923 57.7375 99.9265 53.4986L99.9297 49.6915L100.629 48.9266C102.05 47.3728 102.984 45.6473 103.564 43.4995C104.021 41.8106 104.024 38.6365 103.57 36.9724C103.17 35.505 102.308 33.7005 101.469 32.5722L100.797 31.6695L102.134 31.6689C103.578 31.6683 104.165 31.4557 104.614 30.771C104.823 30.4518 106 25.1868 106 24.5698C106 24.0992 105.575 23.332 105.157 23.0483C104.816 22.817 104.319 22.7788 100.818 22.7148L96.8649 22.6426L96.1151 20.8373C94.4599 16.852 93.1107 14.5862 91.3374 12.8139C90.3351 11.8121 89.9434 11.5374 88.5117 10.8327C85.2799 9.24184 81.409 8.23936 76.082 7.61383C74.2494 7.39863 66.4509 7.20914 65.0254 7.34519ZM75.6528 13.2454C80.4528 13.8324 83.8306 14.7238 86.2715 16.0474C87.6039 16.77 88.4104 17.7743 89.596 20.1873C90.4435 21.912 91.8359 25.2829 91.8359 25.6098C91.8359 25.697 83.4197 25.7479 69 25.7479C52.7908 25.7479 46.1641 25.7028 46.1641 25.5925C46.1641 25.5068 46.4497 24.7107 46.7988 23.8232C48.19 20.2868 49.6048 17.6614 50.5812 16.8046C52.6862 14.9578 58.2853 13.5038 65.3145 12.9788C66.9617 12.8558 73.9381 13.0357 75.6528 13.2454ZM48.992 35.2928C53.4045 36.1006 55.1131 41.5163 51.9523 44.6751C49.7867 46.839 46.2992 46.839 44.1337 44.6751C41.0359 41.5794 42.5563 36.291 46.8145 35.3503C47.9191 35.1063 47.9665 35.105 48.992 35.2928ZM92.0689 35.5905C95.0088 36.6779 96.4205 40.216 95.0613 43.0906C93.667 46.0393 90.2295 47.1392 87.2796 45.5805C86.5736 45.2075 85.4617 44.047 85.0761 43.2805C84.0136 41.1692 84.4388 38.5064 86.1041 36.8424C87.6685 35.2791 89.9387 34.8026 92.0689 35.5905Z" fill="url(#paint0_linear_2_157)"/>
</g>
<defs>
<filter id="filter0_dddd_2_157" x="0" y="0.299316" width="138" height="145.233" filterUnits="userSpaceOnUse" color-interpolation-filters="sRGB">
<feFlood flood-opacity="0" result="BackgroundImageFix"/>
<feColorMatrix in="SourceAlpha" type="matrix" values="0 0 0 0 0 0 0 0 0 0 0 0 0 0 0 0 0 0 127 0" result="hardAlpha"/>
<feOffset/>
<feColorMatrix type="matrix" values="0 0 0 0 0.701961 0 0 0 0 0.701961 0 0 0 0 0.701961 0 0 0 0.03 0"/>
<feBlend mode="normal" in2="BackgroundImageFix" result="effect1_dropShadow_2_157"/>
<feColorMatrix in="SourceAlpha" type="matrix" values="0 0 0 0 0 0 0 0 0 0 0 0 0 0 0 0 0 0 127 0" result="hardAlpha"/>
<feOffset dy="6"/>
<feGaussianBlur stdDeviation="6.5"/>
<feColorMatrix type="matrix" values="0 0 0 0 0.701961 0 0 0 0 0.701961 0 0 0 0 0.701961 0 0 0 0.03 0"/>
<feBlend mode="normal" in2="effect1_dropShadow_2_157" result="effect2_dropShadow_2_157"/>
<feColorMatrix in="SourceAlpha" type="matrix" values="0 0 0 0 0 0 0 0 0 0 0 0 0 0 0 0 0 0 127 0" result="hardAlpha"/>
<feOffset dy="24"/>
<feGaussianBlur stdDeviation="12"/>
<feColorMatrix type="matrix" values="0 0 0 0 0.701961 0 0 0 0 0.701961 0 0 0 0 0.701961 0 0 0 0.03 0"/>
<feBlend mode="normal" in2="effect2_dropShadow_2_157" result="effect3_dropShadow_2_157"/>
<feColorMatrix in="SourceAlpha" type="matrix" values="0 0 0 0 0 0 0 0 0 0 0 0 0 0 0 0 0 0 127 0" result="hardAlpha"/>
<feOffset dy="54"/>
<feGaussianBlur stdDeviation="16"/>
<feColorMatrix type="matrix" values="0 0 0 0 0.701961 0 0 0 0 0.701961 0 0 0 0 0.701961 0 0 0 0.02 0"/>
<feBlend mode="normal" in2="effect3_dropShadow_2_157" result="effect4_dropShadow_2_157"/>
<feBlend mode="normal" in="SourceGraphic" in2="effect4_dropShadow_2_157" result="shape"/>
</filter>
<linearGradient id="paint0_linear_2_157" x1="31.0263" y1="41.4077" x2="111.921" y2="72.9439" gradientUnits="userSpaceOnUse">
<stop stop-color="#FCB346"/>
<stop offset="1" stop-color="#FFC85F"/>
</linearGradient>
</defs>
</svg>
