<svg width="138" height="168" viewBox="0 0 138 168" fill="none" xmlns="http://www.w3.org/2000/svg">
<g filter="url(#filter0_dddd_2_161)">
<path fill-rule="evenodd" clip-rule="evenodd" d="M39.2066 7.39061C37.5671 7.70807 35.9759 8.52468 34.7633 9.67087C31.9023 12.3752 31.2021 16.3003 32.948 19.8462C33.5766 21.1227 35.0993 22.7515 36.2076 23.3326L36.8941 23.6927V44.2744V64.8561L36.2076 65.2161C35.8301 65.4142 35.0644 66.0315 34.506 66.5879C31.837 69.2486 31.2424 73.2823 33.0195 76.672C33.6962 77.963 35.3966 79.6219 36.7129 80.2753C39.5709 81.6942 42.7605 81.5158 45.3379 79.7932C47.845 78.1175 49.1793 75.6288 49.1793 72.6283C49.1793 71.1168 48.9171 69.9757 48.2734 68.6856C47.701 67.5386 46.2453 65.9637 45.1105 65.2638L44.2652 64.7424V56.386V48.0296H52.7092H61.1531L61.8235 49.037C62.5567 50.1391 63.6282 51.1559 64.599 51.6705L65.2223 52.001L65.2137 58.4282L65.2054 64.8557L64.1819 65.5056C61.8462 66.989 60.4069 69.6506 60.3942 72.5104C60.3832 75.0098 61.1588 76.904 62.9145 78.6662C65.6345 81.396 69.6362 82.0047 73.0723 80.2111C74.3841 79.5264 76.0049 77.8437 76.6641 76.4823C77.3531 75.0592 77.5729 74.0908 77.566 72.5104C77.5592 70.9945 77.283 69.926 76.5227 68.4754C75.9106 67.3072 74.4295 65.752 73.4192 65.217L72.7379 64.8561V58.476V52.0958L73.746 51.426C74.8443 50.6965 75.866 49.6231 76.375 48.6642L76.6993 48.0534L83.5712 47.9919C90.0679 47.9337 90.51 47.913 91.6715 47.613C96.0975 46.47 99.4133 43.1865 100.658 38.7138C100.966 37.6072 100.982 37.2651 101.032 30.6209L101.083 23.6835L101.698 23.3576C103.299 22.5091 104.923 20.4884 105.555 18.5587C105.85 17.6584 105.906 17.2113 105.897 15.8217C105.888 14.4089 105.831 14.0153 105.518 13.187C104.485 10.4567 102.557 8.59978 99.7652 7.64698C99.1783 7.44665 98.5544 7.3753 97.3805 7.37415C95.4096 7.37213 94.1315 7.74678 92.5871 8.77916C90.1166 10.4303 88.7809 12.9366 88.7809 15.9205C88.7809 17.432 89.043 18.5731 89.6868 19.8631C90.2591 21.0102 91.7148 22.5851 92.8497 23.285L93.6949 23.8064V29.7601C93.6949 35.8582 93.6281 36.7916 93.1164 37.848C92.7358 38.6337 91.7638 39.5957 90.8766 40.0648L90.1539 40.447L83.4841 40.4886L76.8143 40.53L76.1493 39.5306C75.4059 38.4133 74.6888 37.7134 73.5246 36.9691L72.7379 36.4664L72.7408 30.0797L72.7437 23.6931L73.4847 23.2598C75.1764 22.2708 76.6972 20.2579 77.3041 18.2048C77.6147 17.1538 77.6518 15.0708 77.3801 13.9441C76.6225 10.8026 73.9282 8.17674 70.7867 7.51757C69.4017 7.22697 68.2206 7.24763 66.8982 7.58559C65.2571 8.00516 64.1555 8.6421 62.9072 9.89387C61.1598 11.6458 60.3832 13.5449 60.3942 16.0384C60.4069 18.8982 61.8462 21.5598 64.1819 23.0432L65.2054 23.6931L65.2137 30.1206L65.2223 36.5478L64.599 36.8783C63.6282 37.3929 62.5567 38.4097 61.8235 39.5118L61.1531 40.5192H52.7092H44.2652V32.1527V23.7863L45.1145 23.2707C46.8872 22.1947 48.4451 20.086 48.9599 18.0661C49.2449 16.9481 49.2401 14.8715 48.9502 13.7483C48.0089 10.1023 44.7405 7.49619 40.9477 7.36736C40.1889 7.34165 39.4054 7.35205 39.2066 7.39061Z" fill="url(#paint0_linear_2_161)"/>
</g>
<defs>
<filter id="filter0_dddd_2_161" x="0" y="0.314697" width="137.898" height="166.916" filterUnits="userSpaceOnUse" color-interpolation-filters="sRGB">
<feFlood flood-opacity="0" result="BackgroundImageFix"/>
<feColorMatrix in="SourceAlpha" type="matrix" values="0 0 0 0 0 0 0 0 0 0 0 0 0 0 0 0 0 0 127 0" result="hardAlpha"/>
<feOffset/>
<feColorMatrix type="matrix" values="0 0 0 0 0.701961 0 0 0 0 0.701961 0 0 0 0 0.701961 0 0 0 0.03 0"/>
<feBlend mode="normal" in2="BackgroundImageFix" result="effect1_dropShadow_2_161"/>
<feColorMatrix in="SourceAlpha" type="matrix" values="0 0 0 0 0 0 0 0 0 0 0 0 0 0 0 0 0 0 127 0" result="hardAlpha"/>
<feOffset dy="6"/>
<feGaussianBlur stdDeviation="6.5"/>
<feColorMatrix type="matrix" values="0 0 0 0 0.701961 0 0 0 0 0.701961 0 0 0 0 0.701961 0 0 0 0.03 0"/>
<feBlend mode="normal" in2="effect1_dropShadow_2_161" result="effect2_dropShadow_2_161"/>
<feColorMatrix in="SourceAlpha" type="matrix" values="0 0 0 0 0 0 0 0 0 0 0 0 0 0 0 0 0 0 127 0" result="hardAlpha"/>
<feOffset dy="24"/>
<feGaussianBlur stdDeviation="12"/>
<feColorMatrix type="matrix" values="0 0 0 0 0.701961 0 0 0 0 0.701961 0 0 0 0 0.701961 0 0 0 0.03 0"/>
<feBlend mode="normal" in2="effect2_dropShadow_2_161" result="effect3_dropShadow_2_161"/>
<feColorMatrix in="SourceAlpha" type="matrix" values="0 0 0 0 0 0 0 0 0 0 0 0 0 0 0 0 0 0 127 0" result="hardAlpha"/>
<feOffset dy="54"/>
<feGaussianBlur stdDeviation="16"/>
<feColorMatrix type="matrix" values="0 0 0 0 0.701961 0 0 0 0 0.701961 0 0 0 0 0.701961 0 0 0 0.02 0"/>
<feBlend mode="normal" in2="effect3_dropShadow_2_161" result="effect4_dropShadow_2_161"/>
<feBlend mode="normal" in="SourceGraphic" in2="effect4_dropShadow_2_161" result="shape"/>
</filter>
<linearGradient id="paint0_linear_2_161" x1="31.0277" y1="55.5818" x2="117.541" y2="79.3819" gradientUnits="userSpaceOnUse">
<stop stop-color="#FCB346"/>
<stop offset="1" stop-color="#FFC85F"/>
</linearGradient>
</defs>
</svg>
