<svg width="127" height="168" viewBox="0 0 127 168" fill="none" xmlns="http://www.w3.org/2000/svg">
<g filter="url(#filter0_dddd_2_165)">
<path fill-rule="evenodd" clip-rule="evenodd" d="M61.8558 7.4606C60.9208 7.85345 60.5028 8.15055 59.1487 9.3847C57.9643 10.4642 56.2137 11.7759 54.8127 12.6334C50.6166 15.2022 46.2519 16.5402 40.2874 17.0861C39.0893 17.1958 38.0562 17.38 37.4363 17.5945C34.9261 18.4633 33.0306 20.5548 32.3354 23.2227C32.1563 23.91 32.0919 25.329 32.0238 30.0831C31.9116 37.9252 32.1861 42.6284 33.0628 47.8883C34.9796 59.3881 40.2444 68.1206 49.0315 74.374C53.295 77.4081 61.1958 81.0668 63.4846 81.0668C64.7889 81.0668 68.2498 79.7593 72.0842 77.8177C76.1122 75.7784 78.8969 73.8865 81.9389 71.1228C86.9811 66.542 90.7744 60.2116 92.7405 53.0971C94.4788 46.8074 95.1003 40.2596 94.9459 29.8664C94.8783 25.3077 94.8125 23.9065 94.6341 23.2227C93.9381 20.5542 92.043 18.4633 89.5329 17.5945C88.913 17.38 87.8799 17.1958 86.6819 17.0861C78.542 16.341 73.1906 14.1182 67.5285 9.13036C65.9249 7.71769 64.9424 7.22027 63.6292 7.15615C62.8881 7.12004 62.5135 7.18431 61.8558 7.4606ZM66.2307 25.9114C73.3262 26.8977 79.3436 32.2459 81.2466 39.2579C82.0669 42.2795 82.0909 45.787 81.3115 48.7145C79.4089 55.8625 73.6722 61.0509 66.303 62.2885C64.22 62.6383 60.9867 62.4726 58.8596 61.9072C52.3544 60.1781 47.388 55.2152 45.6577 48.7145C44.905 45.887 44.905 42.2985 45.6577 39.471C47.7348 31.6678 54.5094 26.1458 62.5452 25.7063C63.5284 25.6526 64.9289 25.7306 66.2307 25.9114ZM62.762 30.0493C59.2254 30.2584 56.257 31.5616 53.6961 34.0294C50.8853 36.738 49.449 40.141 49.449 44.0928C49.449 48.0561 50.877 51.4397 53.6961 54.1562C56.4814 56.84 59.6397 58.1185 63.4846 58.1185C67.3296 58.1185 70.4879 56.84 73.2731 54.1562C76.084 51.4476 77.5221 48.0415 77.5221 44.0928C77.5221 40.1558 76.0756 36.7299 73.2731 34.0294C70.3845 31.2459 66.6215 29.8211 62.762 30.0493ZM71.2864 37.9909C72.3061 38.5028 72.7641 39.8951 72.2389 40.8864C72.1253 41.1009 69.6051 43.691 66.6383 46.6421C60.8901 52.3604 60.9297 52.3288 59.7517 52.1104C59.3155 52.0295 58.8137 51.6092 56.9332 49.7494C55.6747 48.505 54.5529 47.3114 54.44 47.0969C53.872 46.0179 54.4281 44.6075 55.5975 44.1613C56.7071 43.7378 57.1303 43.9162 58.7209 45.4776C59.4823 46.2253 60.1669 46.837 60.2422 46.837C60.3174 46.837 62.3298 44.8807 64.714 42.4898C67.0983 40.0989 69.2442 38.054 69.4827 37.9459C70.0778 37.6759 70.6894 37.6911 71.2864 37.9909Z" fill="url(#paint0_linear_2_165)"/>
</g>
<defs>
<filter id="filter0_dddd_2_165" x="0" y="0.146973" width="126.969" height="166.92" filterUnits="userSpaceOnUse" color-interpolation-filters="sRGB">
<feFlood flood-opacity="0" result="BackgroundImageFix"/>
<feColorMatrix in="SourceAlpha" type="matrix" values="0 0 0 0 0 0 0 0 0 0 0 0 0 0 0 0 0 0 127 0" result="hardAlpha"/>
<feOffset/>
<feColorMatrix type="matrix" values="0 0 0 0 0.701961 0 0 0 0 0.701961 0 0 0 0 0.701961 0 0 0 0.03 0"/>
<feBlend mode="normal" in2="BackgroundImageFix" result="effect1_dropShadow_2_165"/>
<feColorMatrix in="SourceAlpha" type="matrix" values="0 0 0 0 0 0 0 0 0 0 0 0 0 0 0 0 0 0 127 0" result="hardAlpha"/>
<feOffset dy="6"/>
<feGaussianBlur stdDeviation="6.5"/>
<feColorMatrix type="matrix" values="0 0 0 0 0.701961 0 0 0 0 0.701961 0 0 0 0 0.701961 0 0 0 0.03 0"/>
<feBlend mode="normal" in2="effect1_dropShadow_2_165" result="effect2_dropShadow_2_165"/>
<feColorMatrix in="SourceAlpha" type="matrix" values="0 0 0 0 0 0 0 0 0 0 0 0 0 0 0 0 0 0 127 0" result="hardAlpha"/>
<feOffset dy="24"/>
<feGaussianBlur stdDeviation="12"/>
<feColorMatrix type="matrix" values="0 0 0 0 0.701961 0 0 0 0 0.701961 0 0 0 0 0.701961 0 0 0 0.03 0"/>
<feBlend mode="normal" in2="effect2_dropShadow_2_165" result="effect3_dropShadow_2_165"/>
<feColorMatrix in="SourceAlpha" type="matrix" values="0 0 0 0 0 0 0 0 0 0 0 0 0 0 0 0 0 0 127 0" result="hardAlpha"/>
<feOffset dy="54"/>
<feGaussianBlur stdDeviation="16"/>
<feColorMatrix type="matrix" values="0 0 0 0 0.701961 0 0 0 0 0.701961 0 0 0 0 0.701961 0 0 0 0.02 0"/>
<feBlend mode="normal" in2="effect3_dropShadow_2_165" result="effect4_dropShadow_2_165"/>
<feBlend mode="normal" in="SourceGraphic" in2="effect4_dropShadow_2_165" result="shape"/>
</filter>
<linearGradient id="paint0_linear_2_165" x1="31.1715" y1="55.4166" x2="106.338" y2="73.0361" gradientUnits="userSpaceOnUse">
<stop stop-color="#FCB346"/>
<stop offset="1" stop-color="#FFC85F"/>
</linearGradient>
</defs>
</svg>
