<svg width="18" height="23" viewBox="0 0 18 23" fill="none" xmlns="http://www.w3.org/2000/svg">
<path fill-rule="evenodd" clip-rule="evenodd" d="M8.75345 0.0634288C8.68458 0.0974005 8.54772 0.2499 8.44929 0.402223C8.35085 0.55459 7.85578 1.19346 7.34918 1.82191C4.1564 5.78258 2.62229 7.92641 1.42443 10.1013C0.787844 11.257 0.443613 12.0578 0.18475 12.9847C-0.226652 14.4579 0.0609088 16.376 0.928914 17.9481C1.63088 19.2193 2.71564 20.3357 4.01499 21.1241C6.30676 22.5146 9.23207 22.8704 11.8452 22.0765C14.4142 21.2959 16.4915 19.4754 17.4372 17.1757C18.0188 15.7612 18.158 14.2202 17.8156 12.9847C17.0879 10.3586 14.6196 6.4418 10.7258 1.73402C9.40581 0.13814 9.26503 -0.00328411 8.99963 5.59287e-05C8.93309 0.000890938 8.82231 0.0294131 8.75345 0.0634288Z" fill="url(#paint0_linear_48_1254)"/>
<defs>
<linearGradient id="paint0_linear_48_1254" x1="-0.236842" y1="14.6876" x2="21.3824" y2="19.4484" gradientUnits="userSpaceOnUse">
<stop stop-color="#FCB346"/>
<stop offset="1" stop-color="#FFC85F"/>
</linearGradient>
</defs>
</svg>
