<svg width="23" height="21" viewBox="0 0 23 21" fill="none" xmlns="http://www.w3.org/2000/svg">
<path d="M4.13679 2.4375C4.13679 1.52582 4.49998 0.651477 5.14648 0.00682044C5.79298 -0.637836 6.66982 -1 7.58411 -1C8.49839 -1 9.37523 -0.637836 10.0217 0.00682044C10.6682 0.651477 11.0314 1.52582 11.0314 2.4375C11.0314 1.52582 11.3946 0.651477 12.0411 0.00682044C12.6876 -0.637836 13.5645 -1 14.4787 -1C15.393 -1 16.2699 -0.637836 16.9164 0.00682044C17.5629 0.651477 17.9261 1.52582 17.9261 2.4375V2.44575C17.9261 2.542 17.9261 2.817 17.8737 3.125H20.6839C21.0496 3.125 21.4004 3.26987 21.659 3.52773C21.9176 3.78559 22.0629 4.13533 22.0629 4.5V5.875C22.0629 6.23967 21.9176 6.58941 21.659 6.84727C21.4004 7.10513 21.0496 7.25 20.6839 7.25H1.37893C1.01321 7.25 0.662478 7.10513 0.403879 6.84727C0.14528 6.58941 0 6.23967 0 5.875V4.5C0 4.13533 0.14528 3.78559 0.403879 3.52773C0.662478 3.26987 1.01321 3.125 1.37893 3.125H4.18919C4.15276 2.90044 4.13524 2.67323 4.13679 2.44575V2.4375ZM5.60948 3.125H9.6525V2.4375C9.6525 2.16665 9.599 1.89845 9.49505 1.64822C9.39111 1.39798 9.23875 1.17061 9.04668 0.979092C8.85461 0.787571 8.6266 0.635649 8.37565 0.531998C8.1247 0.428348 7.85573 0.375 7.58411 0.375C7.31248 0.375 7.04352 0.428348 6.79257 0.531998C6.54162 0.635649 6.3136 0.787571 6.12153 0.979092C5.92946 1.17061 5.77711 1.39798 5.67316 1.64822C5.56921 1.89845 5.51571 2.16665 5.51571 2.4375C5.51571 2.55437 5.51847 2.81425 5.57777 3.02875C5.58605 3.06154 5.59665 3.0937 5.60948 3.125ZM12.4104 3.125H16.4534C16.4661 3.09365 16.4767 3.06149 16.4851 3.02875C16.5444 2.81425 16.5471 2.55437 16.5471 2.4375C16.5471 1.89049 16.3292 1.36589 15.9413 0.979092C15.5534 0.592299 15.0273 0.375 14.4787 0.375C13.9302 0.375 13.4041 0.592299 13.0162 0.979092C12.6283 1.36589 12.4104 1.89049 12.4104 2.4375V3.125ZM20.6839 8.625V18.9375C20.6839 19.4845 20.466 20.0091 20.0781 20.3959C19.6902 20.7827 19.1641 21 18.6155 21H12.4104V8.625H20.6839ZM3.44732 21C2.89875 21 2.37265 20.7827 1.98475 20.3959C1.59685 20.0091 1.37893 19.4845 1.37893 18.9375V8.625H9.6525V21H3.44732Z" fill="url(#paint0_linear_48_1259)"/>
<defs>
<linearGradient id="paint0_linear_48_1259" x1="-0.290301" y1="13.366" x2="25.5276" y2="20.4906" gradientUnits="userSpaceOnUse">
<stop stop-color="#FCB346"/>
<stop offset="1" stop-color="#FFC85F"/>
</linearGradient>
</defs>
</svg>
