<svg width="18" height="23" viewBox="0 0 18 23" fill="none" xmlns="http://www.w3.org/2000/svg">
<path fill-rule="evenodd" clip-rule="evenodd" d="M10.5233 0.0702321C10.3479 0.166406 10.2384 0.322888 10.1899 0.546489C10.1693 0.641344 10.1521 1.18872 10.1515 1.76287L10.1506 2.80681H8.47568C7.4851 2.80681 6.74244 2.8247 6.65795 2.85063C6.55735 2.88149 6.35349 3.06689 5.96971 3.4766L5.42434 4.0587L4.42846 2.99348L4.52023 2.86078C4.80809 2.44426 4.52335 1.83979 4.03926 1.83979C3.93944 1.83979 3.81735 1.86163 3.76795 1.88831C3.64031 1.95737 0.130407 5.70527 0.0592314 5.84852C-0.0752292 6.1192 0.0254929 6.47431 0.297948 6.69022C0.455709 6.81519 0.771684 6.80719 0.946869 6.67378L1.07722 6.57453L2.0747 7.6415L1.5556 8.20211C1.27012 8.51046 1.01603 8.80597 0.990963 8.85876C0.958334 8.92759 0.945431 10.5866 0.945431 14.7136V20.4723L1.04751 20.8152C1.16783 21.2194 1.30977 21.4605 1.63306 21.81C1.91657 22.1165 2.39594 22.3823 2.79468 22.4541C2.98244 22.4879 5.01545 22.4984 9.63688 22.4895L16.212 22.4768L16.4864 22.3626C16.8651 22.2048 17.1356 22.0098 17.4017 21.7023C17.6513 21.414 17.8837 20.9394 17.9545 20.5736C17.9864 20.4086 17.9996 17.4494 17.9996 10.4266C17.9996 -0.556659 18.0221 0.330712 17.7377 0.11366L17.6092 0.0156395L14.1367 0.004299C10.8925 -0.00625029 10.655 -0.00194266 10.5233 0.0702321ZM16.7667 2.80681H11.3834V1.31232H16.7667V2.80681ZM5.08289 9.22732C5.14642 9.25317 5.47661 9.56965 5.81663 9.93061L6.43485 10.5869H12.5103L13.1488 9.90934C13.6822 9.34337 13.8131 9.22662 13.943 9.20086C14.2739 9.13515 14.5405 9.28394 14.6521 9.59659C14.7827 9.9623 14.7424 10.0409 14.0305 10.8084L13.397 11.4914V16.6319L13.9934 17.2687C14.6439 17.9632 14.7464 18.1352 14.6927 18.4416C14.6568 18.646 14.4094 18.9131 14.218 18.954C13.923 19.0171 13.789 18.9281 13.1285 18.2309L12.5081 17.5758H6.3894L5.77348 18.2362C5.10056 18.9576 4.99372 19.0274 4.69332 18.9408C4.44568 18.8695 4.23298 18.5848 4.23298 18.3245C4.23298 18.0737 4.34443 17.909 4.9479 17.2687L5.548 16.6319V11.5308L4.96976 10.916C4.32038 10.2256 4.21346 10.0553 4.24448 9.76099C4.29022 9.32671 4.69451 9.06939 5.08289 9.22732ZM6.78083 16.2578L12.1436 16.2352L12.165 11.9056H6.78083V16.2578Z" fill="url(#paint0_linear_48_1244)"/>
<defs>
<linearGradient id="paint0_linear_48_1244" x1="-0.236842" y1="14.6876" x2="21.3824" y2="19.4484" gradientUnits="userSpaceOnUse">
<stop stop-color="#FCB346"/>
<stop offset="1" stop-color="#FFC85F"/>
</linearGradient>
</defs>
</svg>
