<svg width="18" height="22" viewBox="0 0 18 22" fill="none" xmlns="http://www.w3.org/2000/svg">
<path fill-rule="evenodd" clip-rule="evenodd" d="M8.49495 0.05481C7.90438 0.166983 7.39465 0.453935 6.98287 0.906003C6.67191 1.24742 6.46192 1.61456 6.34173 2.02715C6.18357 2.56996 6.18998 2.74693 6.45518 5.16125C6.59026 6.39098 6.71109 7.44977 6.72377 7.51415C6.75492 7.67277 6.92952 7.88126 7.08986 7.95128C7.18131 7.99124 7.4072 8.00883 7.82831 8.00883H8.43498V9.84393V11.679H7.65646C6.59284 11.679 6.24515 11.7827 5.78587 12.2367C5.39217 12.6259 5.16592 13.1312 5.16592 13.621C5.16592 13.9325 5.2108 14.0301 5.38983 14.1083C5.59364 14.1973 12.4064 14.1973 12.6102 14.1083C12.7892 14.0301 12.8341 13.9325 12.8341 13.621C12.8341 12.7825 12.1946 11.971 11.3532 11.742C11.1891 11.6973 10.908 11.679 10.3839 11.679H9.64574V9.84393V8.00883H10.2585C10.7918 8.00883 10.8933 7.99773 11.0406 7.92319C11.3502 7.76655 11.3518 7.75908 11.6238 5.22453C11.7571 3.9832 11.866 2.8861 11.8658 2.7865C11.8652 2.46778 11.7436 1.96496 11.5831 1.6176C11.031 0.423054 9.80976 -0.194933 8.49495 0.05481ZM4.36113 15.4149C3.52421 15.6046 2.91209 16.3154 2.80356 17.2235C2.76926 17.5104 2.82996 17.6903 2.99022 17.7769C3.1611 17.8693 14.8389 17.8693 15.0098 17.7769C15.238 17.6536 15.2669 17.2873 15.0907 16.7519C14.9323 16.2705 14.5407 15.8021 14.1147 15.5842C13.6521 15.3476 13.7162 15.3505 8.97982 15.3533C5.40678 15.3555 4.57422 15.3666 4.36113 15.4149ZM1.52483 19.1693C1.23223 19.2435 0.875623 19.4323 0.658735 19.6281C0.278879 19.9708 0 20.5915 0 21.0943C0 21.3165 0.0139238 21.3608 0.117969 21.4695L0.235937 21.5928H9H17.7641L17.882 21.4695C17.9861 21.3608 18 21.3165 18 21.0943C18 20.5915 17.7211 19.9708 17.3413 19.6281C17.1086 19.4182 16.7488 19.2349 16.4309 19.1645C16.0355 19.0769 1.87148 19.0815 1.52483 19.1693Z" fill="url(#paint0_linear_48_1251)"/>
<defs>
<linearGradient id="paint0_linear_48_1251" x1="-0.236842" y1="14.1001" x2="21.2977" y2="19.0398" gradientUnits="userSpaceOnUse">
<stop stop-color="#FCB346"/>
<stop offset="1" stop-color="#FFC85F"/>
</linearGradient>
</defs>
</svg>
