<svg width="53" height="38" viewBox="0 0 53 38" fill="none" xmlns="http://www.w3.org/2000/svg">
<g filter="url(#filter0_f_2_61)">
<rect x="5.83337" y="7.16211" width="41.3333" height="25.3333" rx="12.6667" fill="url(#paint0_linear_2_61)"/>
</g>
<rect x="3.16634" y="1.82861" width="46.6667" height="30.6667" rx="15.3333" fill="url(#paint1_linear_2_61)"/>
<rect x="2.83334" y="0.495361" width="46.6667" height="30.6667" rx="15.3333" fill="url(#paint2_linear_2_61)"/>
<path fill-rule="evenodd" clip-rule="evenodd" d="M32.345 9.80491C30.8582 8.31638 28.881 7.49627 26.7744 7.49536C22.4338 7.49536 18.9011 11.0279 18.8993 15.3698C18.8988 16.7577 19.2613 18.1125 19.9505 19.3068L18.8333 23.3875L23.008 22.2924C24.1582 22.9198 25.4532 23.2505 26.7712 23.251H26.7745C31.1146 23.251 34.6477 19.718 34.6495 15.376C34.6502 13.2719 33.8318 11.2934 32.345 9.80491ZM26.7745 21.921H26.7718C25.5973 21.9206 24.4454 21.605 23.4405 21.0086L23.2014 20.8669L20.7241 21.5166L21.3853 19.1013L21.2297 18.8535C20.5746 17.8115 20.2284 16.607 20.229 15.3702C20.2304 11.7614 23.1666 8.82539 26.7771 8.82539C28.5253 8.82599 30.1688 9.50768 31.4046 10.745C32.6403 11.9822 33.3204 13.6266 33.3197 15.3756C33.3183 18.9847 30.3821 21.921 26.7745 21.921ZM30.3647 17.0188C30.168 16.9203 29.2006 16.4443 29.0202 16.3786C28.8399 16.3131 28.7087 16.2802 28.5775 16.4772C28.4464 16.6742 28.0692 17.1173 27.9544 17.2487C27.8396 17.3799 27.7248 17.3965 27.5281 17.2979C27.3313 17.1995 26.6973 16.9916 25.9457 16.3212C25.3608 15.7995 24.9659 15.1552 24.8511 14.9581C24.7363 14.7611 24.8388 14.6547 24.9374 14.5565C25.0259 14.4683 25.1342 14.3267 25.2326 14.2118C25.331 14.0969 25.3638 14.0148 25.4294 13.8835C25.495 13.7522 25.4622 13.6372 25.4129 13.5388C25.3638 13.4402 24.9702 12.4717 24.8063 12.0777C24.6465 11.6941 24.4843 11.746 24.3635 11.7399C24.2489 11.7343 24.1176 11.733 23.9864 11.733C23.8552 11.733 23.6421 11.7822 23.4617 11.9792C23.2814 12.1762 22.773 12.6523 22.773 13.6208C22.773 14.5893 23.478 15.5249 23.5765 15.6563C23.6748 15.7876 24.964 17.7751 26.9378 18.6275C27.4072 18.8302 27.7738 18.9512 28.0596 19.042C28.531 19.1918 28.9599 19.1706 29.2989 19.12C29.677 19.0634 30.4631 18.6439 30.627 18.1843C30.791 17.7246 30.791 17.3306 30.7418 17.2486C30.6927 17.1666 30.5615 17.1173 30.3647 17.0188Z" fill="#FFFAFA"/>
<defs>
<filter id="filter0_f_2_61" x="0.833366" y="2.16211" width="51.3333" height="35.3333" filterUnits="userSpaceOnUse" color-interpolation-filters="sRGB">
<feFlood flood-opacity="0" result="BackgroundImageFix"/>
<feBlend mode="normal" in="SourceGraphic" in2="BackgroundImageFix" result="shape"/>
<feGaussianBlur stdDeviation="2.5" result="effect1_foregroundBlur_2_61"/>
</filter>
<linearGradient id="paint0_linear_2_61" x1="7.01432" y1="32.4954" x2="49.3336" y2="8.58217" gradientUnits="userSpaceOnUse">
<stop stop-color="#27D045"/>
<stop offset="1" stop-color="#5FFC7B"/>
</linearGradient>
<linearGradient id="paint1_linear_2_61" x1="4.49968" y1="32.4953" x2="53.833" y2="6.49528" gradientUnits="userSpaceOnUse">
<stop stop-color="#25C040"/>
<stop offset="1" stop-color="#55EB70"/>
</linearGradient>
<linearGradient id="paint2_linear_2_61" x1="4.16667" y1="31.162" x2="53.5" y2="5.16203" gradientUnits="userSpaceOnUse">
<stop stop-color="#27D045"/>
<stop offset="1" stop-color="#5FFC7B"/>
</linearGradient>
</defs>
</svg>
