<svg width="53" height="38" viewBox="0 0 53 38" fill="none" xmlns="http://www.w3.org/2000/svg">
<g filter="url(#filter0_f_2_48)">
<rect x="5.83398" y="7.16211" width="41.3333" height="25.3333" rx="12.6667" fill="url(#paint0_linear_2_48)"/>
<rect x="6.33398" y="7.66211" width="40.3333" height="24.3333" rx="12.1667" stroke="url(#paint1_linear_2_48)"/>
</g>
<rect x="3.16699" y="1.82861" width="46.6667" height="30.6667" rx="15.3333" fill="url(#paint2_linear_2_48)"/>
<rect x="3.16699" y="0.495361" width="46.6667" height="30.6667" rx="15.3333" fill="url(#paint3_linear_2_48)"/>
<path fill-rule="evenodd" clip-rule="evenodd" d="M34.754 11.1725C34.8791 10.7822 34.754 10.4954 34.1584 10.4954H32.1892C31.6885 10.4954 31.4577 10.7431 31.3325 11.0163C31.3325 11.0163 30.3311 13.2997 28.9125 14.7829C28.4535 15.2122 28.2449 15.3488 27.9945 15.3488C27.8694 15.3488 27.6882 15.2122 27.6882 14.8219V11.1725C27.6882 10.7041 27.5428 10.4954 27.1256 10.4954H24.0311C23.7182 10.4954 23.53 10.7128 23.53 10.9188C23.53 11.3628 24.2393 11.4652 24.3124 12.7142V15.4269C24.3124 16.0217 24.1976 16.1295 23.9472 16.1295C23.2797 16.1295 21.6558 13.8359 20.6927 11.2115C20.5039 10.7014 20.3146 10.4954 19.8114 10.4954H17.8422C17.2795 10.4954 17.167 10.7431 17.167 11.0163C17.167 11.5042 17.8346 13.9242 20.2755 17.1248C21.9027 19.3105 24.1954 20.4954 26.2816 20.4954C27.5333 20.4954 27.6882 20.2322 27.6882 19.7789V18.1269C27.6882 17.6006 27.8068 17.4956 28.2032 17.4956C28.4952 17.4956 28.9959 17.6322 30.1642 18.686C31.4994 19.935 31.7195 20.4954 32.4706 20.4954H34.4398C35.0024 20.4954 35.2837 20.2322 35.1214 19.7129C34.9438 19.1953 34.3064 18.4443 33.4605 17.5541C33.0015 17.0467 32.313 16.5003 32.1044 16.227C31.8123 15.8758 31.8958 15.7196 32.1044 15.4074C32.1044 15.4074 34.5036 12.2458 34.754 11.1725Z" fill="#FFFAFA"/>
<defs>
<filter id="filter0_f_2_48" x="0.833984" y="2.16211" width="51.3333" height="35.3333" filterUnits="userSpaceOnUse" color-interpolation-filters="sRGB">
<feFlood flood-opacity="0" result="BackgroundImageFix"/>
<feBlend mode="normal" in="SourceGraphic" in2="BackgroundImageFix" result="shape"/>
<feGaussianBlur stdDeviation="2.5" result="effect1_foregroundBlur_2_48"/>
</filter>
<linearGradient id="paint0_linear_2_48" x1="7.01494" y1="32.4954" x2="49.3342" y2="8.58217" gradientUnits="userSpaceOnUse">
<stop stop-color="#2787F5"/>
<stop offset="1" stop-color="#2787F5"/>
</linearGradient>
<linearGradient id="paint1_linear_2_48" x1="7.01494" y1="32.4954" x2="49.3342" y2="8.58217" gradientUnits="userSpaceOnUse">
<stop stop-color="#53A3FF"/>
<stop offset="1" stop-color="#2787F5"/>
</linearGradient>
<linearGradient id="paint2_linear_2_48" x1="4.50033" y1="32.4953" x2="53.8337" y2="6.49528" gradientUnits="userSpaceOnUse">
<stop stop-color="#2280EB"/>
<stop offset="1" stop-color="#237BE0"/>
</linearGradient>
<linearGradient id="paint3_linear_2_48" x1="4.50033" y1="31.162" x2="53.8337" y2="5.16203" gradientUnits="userSpaceOnUse">
<stop stop-color="#2787F5"/>
<stop offset="1" stop-color="#2787F5"/>
</linearGradient>
</defs>
</svg>
