<svg width="52" height="38" viewBox="0 0 52 38" fill="none" xmlns="http://www.w3.org/2000/svg">
<g filter="url(#filter0_f_2_53)">
<rect x="5.50066" y="7.16211" width="41.3333" height="25.3333" rx="12.6667" fill="url(#paint0_linear_2_53)"/>
</g>
<rect x="2.83366" y="1.82861" width="46.6667" height="30.6667" rx="15.3333" fill="url(#paint1_linear_2_53)"/>
<rect x="3.16667" y="0.495361" width="46.6667" height="30.6667" rx="15.3333" fill="url(#paint2_linear_2_53)"/>
<path d="M22.3112 16.483L24.1771 21.6477C24.1771 21.6477 24.4104 22.1309 24.6602 22.1309C24.91 22.1309 28.6256 18.2656 28.6256 18.2656L32.7573 10.2852L22.3778 15.1498L22.3112 16.483Z" fill="#C8DAEA"/>
<path d="M24.786 17.8074L24.4278 21.6142C24.4278 21.6142 24.2779 22.7807 25.4441 21.6142C26.6103 20.4478 27.7265 19.5483 27.7265 19.5483" fill="#A9C6D8"/>
<path d="M22.3453 16.6672L18.507 15.4166C18.507 15.4166 18.0483 15.2305 18.196 14.8085C18.2264 14.7215 18.2877 14.6474 18.4712 14.5202C19.3217 13.9274 34.2127 8.57515 34.2127 8.57515C34.2127 8.57515 34.6331 8.43347 34.8811 8.5277C34.9424 8.54669 34.9976 8.58164 35.041 8.62896C35.0844 8.67628 35.1145 8.73429 35.1281 8.79704C35.1549 8.90787 35.1661 9.0219 35.1614 9.13584C35.1602 9.23439 35.1483 9.32575 35.1393 9.469C35.0486 10.9323 32.3345 21.8535 32.3345 21.8535C32.3345 21.8535 32.1721 22.4926 31.5903 22.5145C31.4474 22.5191 31.3049 22.4949 31.1715 22.4433C31.0381 22.3917 30.9164 22.3137 30.8138 22.2141C29.6721 21.232 25.7261 18.5801 24.8541 17.9969C24.8344 17.9835 24.8179 17.966 24.8055 17.9457C24.7932 17.9253 24.7853 17.9025 24.7825 17.8789C24.7704 17.8174 24.8372 17.7413 24.8372 17.7413C24.8372 17.7413 31.7083 11.6338 31.8911 10.9926C31.9053 10.9429 31.8518 10.9184 31.78 10.9402C31.3236 11.1081 23.4124 16.1041 22.5393 16.6554C22.4764 16.6745 22.41 16.6785 22.3453 16.6672Z" fill="#FFFAFA"/>
<defs>
<filter id="filter0_f_2_53" x="0.500656" y="2.16211" width="51.3333" height="35.3333" filterUnits="userSpaceOnUse" color-interpolation-filters="sRGB">
<feFlood flood-opacity="0" result="BackgroundImageFix"/>
<feBlend mode="normal" in="SourceGraphic" in2="BackgroundImageFix" result="shape"/>
<feGaussianBlur stdDeviation="2.5" result="effect1_foregroundBlur_2_53"/>
</filter>
<linearGradient id="paint0_linear_2_53" x1="6.68161" y1="32.4954" x2="49.0009" y2="8.58217" gradientUnits="userSpaceOnUse">
<stop stop-color="#2095D4"/>
<stop offset="1" stop-color="#37AFE2"/>
</linearGradient>
<linearGradient id="paint1_linear_2_53" x1="4.167" y1="32.4953" x2="53.5003" y2="6.49528" gradientUnits="userSpaceOnUse">
<stop stop-color="#1B88C2"/>
<stop offset="1" stop-color="#309BC8"/>
</linearGradient>
<linearGradient id="paint2_linear_2_53" x1="4.50001" y1="31.162" x2="53.8333" y2="5.16203" gradientUnits="userSpaceOnUse">
<stop stop-color="#2095D4"/>
<stop offset="1" stop-color="#37AFE2"/>
</linearGradient>
</defs>
</svg>
