<svg width="133" height="22" viewBox="0 0 133 22" fill="none" xmlns="http://www.w3.org/2000/svg">
<path fill-rule="evenodd" clip-rule="evenodd" d="M43.4375 0.626465H48.2421V21.7477H43.4375V0.626465Z" fill="#FDD067"/>
<path fill-rule="evenodd" clip-rule="evenodd" d="M29.186 14.089L26.7677 7.35774L23.8534 0.626465H18.924V1.28463L28.2559 21.7477H30.1781L39.417 1.28463V0.626465H34.4875L31.5732 7.38765L29.279 14.089H29.186Z" fill="#FDD067"/>
<path d="M15.5457 18.2774L17.2523 21.7477H22.0619V21.1494L12.1325 0.626465H9.99147L0 21.1494V21.7477H4.84059L6.51617 18.2774H15.5457ZM11.0465 7.59707L14.0563 14.5078H8.03661L11.0465 7.59707Z" fill="#FDD067"/>
<path d="M66.7267 14.0886C69.233 12.9126 70.6428 10.5605 70.6428 7.87684C70.6428 4.13774 67.9172 0.639867 62.9044 0.639867C59.7715 0.609713 56.6699 0.639867 53.5369 0.639867V21.7477H58.2364V14.7821H62.1525L66.664 21.7477H71.6767V21.1145L66.7267 14.0886ZM58.1737 11.0732V4.59005H62.8731C64.8782 4.59005 66.1001 6.00729 66.1001 7.78638C66.1314 9.59562 64.8469 11.0732 62.8731 11.0732H58.1737Z" fill="#FDD067"/>
<path fill-rule="evenodd" clip-rule="evenodd" d="M88.8784 0.626465H75.4023V21.7477H89.1297V17.6441H80.1457V12.8164H88.313V8.86375H80.1457V4.57915H88.8784V0.626465Z" fill="#FDD067"/>
<path fill-rule="evenodd" clip-rule="evenodd" d="M110.382 21.7477H111.781V0.716342H107.119V12.6101L94.9057 0.626465H93.4451V21.6878H98.0757V9.7041L110.382 21.7477Z" fill="#FDD067"/>
<path fill-rule="evenodd" clip-rule="evenodd" d="M122.033 4.54898V21.7477H126.562V4.54898H132.371V0.626465H116.192V4.54898H122.033Z" fill="#FDD067"/>
</svg>
