<svg width="26" height="26" viewBox="0 0 26 26" fill="none" xmlns="http://www.w3.org/2000/svg">
<path d="M14.0914 17.4525L15.9114 15.6325C16.1566 15.3904 16.4667 15.2247 16.8042 15.1555C17.1417 15.0863 17.4921 15.1165 17.8127 15.2425L20.0308 16.1282C20.3548 16.2597 20.6327 16.4842 20.8293 16.7734C21.026 17.0625 21.1326 17.4035 21.1358 17.7532V21.8157C21.1339 22.0535 21.0839 22.2886 20.9888 22.5066C20.8937 22.7247 20.7554 22.9212 20.5824 23.0844C20.4093 23.2476 20.205 23.3741 19.9817 23.4563C19.7585 23.5385 19.5209 23.5746 19.2833 23.5625C3.7402 22.5957 0.603945 9.43316 0.0108204 4.39566C-0.0167128 4.14828 0.00844359 3.89788 0.0846346 3.66092C0.160826 3.42397 0.286324 3.20583 0.452875 3.02086C0.619426 2.83589 0.823253 2.68827 1.05095 2.58774C1.27864 2.4872 1.52505 2.43601 1.77395 2.43753H5.69832C6.04852 2.43857 6.39039 2.54435 6.67998 2.74127C6.96957 2.93819 7.19362 3.21724 7.32332 3.54253L8.20895 5.76066C8.33915 6.08003 8.37237 6.43068 8.30445 6.76882C8.23654 7.10696 8.0705 7.41759 7.82707 7.66191L6.00707 9.48191C6.00707 9.48191 7.0552 16.575 14.0914 17.4525Z" fill="url(#paint0_linear_2_427)"/>
<defs>
<linearGradient id="paint0_linear_2_427" x1="-0.278103" y1="16.2336" x2="24.4635" y2="23.0446" gradientUnits="userSpaceOnUse">
<stop stop-color="#FCB346"/>
<stop offset="1" stop-color="#FFC85F"/>
</linearGradient>
</defs>
</svg>
