<svg width="25" height="28" viewBox="0 0 25 28" fill="none" xmlns="http://www.w3.org/2000/svg">
<path fill-rule="evenodd" clip-rule="evenodd" d="M11.5959 0.535687C9.44273 0.850059 7.62719 2.24529 6.66644 4.32398C5.9516 5.87056 5.70603 8.09059 6.05537 9.84852C6.59578 12.5683 8.64048 16.4867 11.4521 20.1909C11.9723 20.8761 12.0824 20.9913 12.287 21.0643C12.7076 21.2143 12.9216 21.0414 13.8146 19.8299C16.9741 15.5436 18.8973 11.5163 19.0839 8.79537C19.1928 7.20716 18.9058 5.6001 18.2742 4.26155C17.3881 2.38371 15.8172 1.09757 13.8421 0.632738C13.3277 0.511675 12.1183 0.459429 11.5959 0.535687ZM12.9856 5.31185C14.22 5.61524 14.9709 7.00366 14.6007 8.29809C14.412 8.95797 14.0266 9.43842 13.4296 9.75807C13.0734 9.94874 13.0541 9.9528 12.4993 9.9528C11.9444 9.9528 11.9251 9.94874 11.5689 9.75807C10.1847 9.01697 9.86897 7.14341 10.9307 5.97073C11.2367 5.63271 11.5785 5.42204 11.9999 5.31164C12.3738 5.21369 12.5864 5.21374 12.9856 5.31185ZM12.2853 6.86571C11.8613 7.00794 11.6522 7.54232 11.8523 7.97274C12.1929 8.70529 13.2313 8.4239 13.2316 7.599C13.2318 7.12193 12.7152 6.72159 12.2853 6.86571ZM4.74518 14.9474C4.6567 15.0087 4.54409 15.1448 4.49497 15.25C4.31708 15.6306 1.40279 23.0191 1.42228 23.0401C1.43326 23.052 3.08136 22.1575 5.08475 21.0524L8.72725 19.0432L8.08039 18.0075C7.47772 17.0425 6.74056 15.7568 6.41984 15.1114L6.28219 14.8344L5.59411 14.8353C4.97835 14.836 4.88913 14.8478 4.74518 14.9474ZM18.5787 15.1114C17.7309 16.8175 15.9453 19.6199 14.581 21.3854C14.0094 22.125 13.8083 22.319 13.4073 22.5174C12.5552 22.939 11.5868 22.7363 10.9184 21.9965C10.6996 21.7543 9.81789 20.6078 9.63829 20.332C9.62867 20.3172 8.41161 20.9921 8.35077 21.0461C8.33846 21.0569 9.44815 22.2768 10.8167 23.757C12.4976 25.575 13.3309 26.4412 13.385 26.4264C13.4511 26.4085 22.8021 21.1853 22.8384 21.1461C22.8515 21.132 20.5917 15.4307 20.4828 15.2032C20.444 15.122 20.3377 15.0059 20.2466 14.945C20.0991 14.8465 20.0062 14.8344 19.3986 14.8344H18.7163L18.5787 15.1114ZM3.68525 23.6001L0.462405 25.3818L0.231971 25.9527C0.105206 26.2667 0.00080532 26.6018 2.40236e-05 26.6973C-0.00231987 26.9678 0.167124 27.2721 0.387889 27.3938C0.577646 27.4984 0.664761 27.5 6.05414 27.5H11.5277L11.7201 27.3813C11.8259 27.3159 11.9127 27.2505 11.9129 27.2359C11.9131 27.2213 10.7871 25.9964 9.41069 24.5139L6.9081 21.8184L3.68525 23.6001ZM19.08 25.0437L14.747 27.4736L19.582 27.4871C24.3479 27.5003 24.4197 27.499 24.6102 27.394C24.8287 27.2735 25 26.9702 25 26.7038C25 26.5674 23.6823 23.1424 23.4679 22.7217C23.4157 22.6191 23.1993 22.7337 19.08 25.0437Z" fill="url(#paint0_linear_2_421)"/>
<defs>
<linearGradient id="paint0_linear_2_421" x1="-0.328947" y1="18.131" x2="29.2347" y2="25.6635" gradientUnits="userSpaceOnUse">
<stop stop-color="#FCB346"/>
<stop offset="1" stop-color="#FFC85F"/>
</linearGradient>
</defs>
</svg>
