<svg width="6" height="7" viewBox="0 0 6 7" fill="none" xmlns="http://www.w3.org/2000/svg">
<g clip-path="url(#clip0_2_90)">
<path d="M5.56595 2.36987L5.29862 2.10256C5.263 2.06686 5.22196 2.04907 5.17557 2.04907C5.1293 2.04907 5.08828 2.06686 5.05266 2.10256L2.95117 4.20394L0.849777 2.10262C0.814137 2.06692 0.773122 2.04913 0.726788 2.04913C0.680435 2.04913 0.63942 2.06692 0.603799 2.10262L0.336508 2.36994C0.300812 2.40557 0.28302 2.44658 0.28302 2.49293C0.28302 2.53925 0.300868 2.58026 0.336508 2.61589L2.82818 5.10762C2.8638 5.14326 2.90484 5.16107 2.95117 5.16107C2.99751 5.16107 3.03846 5.14326 3.07407 5.10762L5.56595 2.61589C5.60157 2.58025 5.61927 2.53923 5.61927 2.49293C5.61927 2.44658 5.60157 2.40557 5.56595 2.36987Z" fill="black"/>
</g>
<defs>
<clipPath id="clip0_2_90">
<rect width="5.33625" height="5.33625" fill="white" transform="translate(0.283112 0.937012)"/>
</clipPath>
</defs>
</svg>
