<svg width="19" height="23" viewBox="0 0 19 23" fill="none" xmlns="http://www.w3.org/2000/svg">
<path fill-rule="evenodd" clip-rule="evenodd" d="M11.0233 0.288982C10.8479 0.385156 10.7384 0.541638 10.6899 0.765239C10.6693 0.860094 10.6521 1.40747 10.6515 1.98162L10.6506 3.02556H8.97568C7.9851 3.02556 7.24244 3.04345 7.15795 3.06938C7.05735 3.10024 6.85349 3.28564 6.46971 3.69535L5.92434 4.27745L4.92846 3.21223L5.02023 3.07953C5.30809 2.66301 5.02335 2.05854 4.53926 2.05854C4.43944 2.05854 4.31735 2.08038 4.26795 2.10706C4.14031 2.17612 0.630407 5.92402 0.559231 6.06727C0.424771 6.33795 0.525493 6.69306 0.797948 6.90897C0.955709 7.03394 1.27168 7.02594 1.44687 6.89253L1.57722 6.79328L2.5747 7.86025L2.0556 8.42086C1.77012 8.72921 1.51603 9.02472 1.49096 9.07751C1.45833 9.14634 1.44543 10.8054 1.44543 14.9323V20.6911L1.54751 21.034C1.66783 21.4382 1.80977 21.6793 2.13306 22.0287C2.41657 22.3353 2.89594 22.601 3.29468 22.6728C3.48244 22.7066 5.51545 22.7172 10.1369 22.7082L16.712 22.6956L16.9864 22.5813C17.3651 22.4236 17.6356 22.2285 17.9017 21.921C18.1513 21.6327 18.3837 21.1582 18.4545 20.7924C18.4864 20.6274 18.4996 17.6681 18.4996 10.6453C18.4996 -0.337909 18.5221 0.549462 18.2377 0.33241L18.1092 0.234389L14.6367 0.223049C11.3925 0.2125 11.155 0.216807 11.0233 0.288982ZM17.2667 3.02556H11.8834V1.53107H17.2667V3.02556ZM5.58289 9.44607C5.64642 9.47192 5.97661 9.7884 6.31663 10.1494L6.93485 10.8057H13.0103L13.6488 10.1281C14.1822 9.56212 14.3131 9.44537 14.443 9.41961C14.7739 9.3539 15.0405 9.50269 15.1521 9.81534C15.2827 10.1811 15.2424 10.2596 14.5305 11.0271L13.897 11.7102V16.8507L14.4934 17.4874C15.1439 18.1819 15.2464 18.354 15.1927 18.6604C15.1568 18.8647 14.9094 19.1318 14.718 19.1727C14.423 19.2359 14.289 19.1469 13.6285 18.4496L13.0081 17.7946H6.8894L6.27348 18.4549C5.60056 19.1764 5.49372 19.2461 5.19332 19.1596C4.94568 19.0883 4.73298 18.8035 4.73298 18.5433C4.73298 18.2924 4.84443 18.1278 5.4479 17.4874L6.048 16.8507V11.7495L5.46976 11.1348C4.82038 10.4443 4.71346 10.2741 4.74448 9.97974C4.79022 9.54546 5.19451 9.28814 5.58289 9.44607ZM7.28083 16.4765L12.6436 16.4539L12.665 12.1243H7.28083V16.4765Z" fill="url(#paint0_linear_2_187)"/>
<defs>
<linearGradient id="paint0_linear_2_187" x1="0.263158" y1="14.9064" x2="21.8824" y2="19.6671" gradientUnits="userSpaceOnUse">
<stop stop-color="#FCB346"/>
<stop offset="1" stop-color="#FFC85F"/>
</linearGradient>
</defs>
</svg>
