<svg width="19" height="22" viewBox="0 0 19 22" fill="none" xmlns="http://www.w3.org/2000/svg">
<path fill-rule="evenodd" clip-rule="evenodd" d="M8.99495 0.258667C8.40438 0.370841 7.89465 0.657792 7.48287 1.10986C7.17191 1.45127 6.96192 1.81842 6.84173 2.231C6.68357 2.77381 6.68998 2.95079 6.95518 5.36511C7.09026 6.59484 7.21109 7.65363 7.22377 7.71801C7.25492 7.87663 7.42952 8.08511 7.58986 8.15514C7.68131 8.19509 7.9072 8.21268 8.32831 8.21268H8.93498V10.0478V11.8829H8.15646C7.09284 11.8829 6.74515 11.9865 6.28587 12.4406C5.89217 12.8298 5.66592 13.335 5.66592 13.8249C5.66592 14.1363 5.7108 14.234 5.88983 14.3122C6.09364 14.4012 12.9064 14.4012 13.1102 14.3122C13.2892 14.234 13.3341 14.1363 13.3341 13.8249C13.3341 12.9863 12.6946 12.1749 11.8532 11.9458C11.6891 11.9012 11.408 11.8829 10.8839 11.8829H10.1457V10.0478V8.21268H10.7585C11.2918 8.21268 11.3933 8.20159 11.5406 8.12705C11.8502 7.97041 11.8518 7.96294 12.1238 5.42839C12.2571 4.18706 12.366 3.08996 12.3658 2.99036C12.3652 2.67164 12.2436 2.16882 12.0831 1.82146C11.531 0.626912 10.3098 0.00892447 8.99495 0.258667ZM4.86113 15.6187C4.02421 15.8084 3.41209 16.5192 3.30356 17.4274C3.26926 17.7142 3.32996 17.8942 3.49022 17.9808C3.6611 18.0732 15.3389 18.0732 15.5098 17.9808C15.738 17.8574 15.7669 17.4911 15.5907 16.9557C15.4323 16.4744 15.0407 16.0059 14.6147 15.7881C14.1521 15.5515 14.2162 15.5543 9.47982 15.5572C5.90678 15.5593 5.07422 15.5704 4.86113 15.6187ZM2.02483 19.3732C1.73223 19.4474 1.37562 19.6362 1.15874 19.8319C0.778879 20.1746 0.5 20.7954 0.5 21.2981C0.5 21.5203 0.513924 21.5646 0.617969 21.6734L0.735937 21.7967H9.5H18.2641L18.382 21.6734C18.4861 21.5646 18.5 21.5203 18.5 21.2981C18.5 20.7954 18.2211 20.1746 17.8413 19.8319C17.6086 19.622 17.2488 19.4388 16.9309 19.3683C16.5355 19.2808 2.37148 19.2854 2.02483 19.3732Z" fill="url(#paint0_linear_2_188)"/>
<defs>
<linearGradient id="paint0_linear_2_188" x1="0.263158" y1="14.304" x2="21.7977" y2="19.2437" gradientUnits="userSpaceOnUse">
<stop stop-color="#FCB346"/>
<stop offset="1" stop-color="#FFC85F"/>
</linearGradient>
</defs>
</svg>
