<svg width="19" height="23" viewBox="0 0 19 23" fill="none" xmlns="http://www.w3.org/2000/svg">
<path fill-rule="evenodd" clip-rule="evenodd" d="M9.25345 0.352613C9.18458 0.386585 9.04772 0.539084 8.94929 0.691407C8.85085 0.843775 8.35578 1.48264 7.84918 2.1111C4.6564 6.07177 3.12229 8.21559 1.92443 10.3905C1.28784 11.5462 0.943613 12.347 0.68475 13.2739C0.273348 14.7471 0.560909 16.6652 1.42891 18.2372C2.13088 19.5085 3.21564 20.6249 4.51499 21.4133C6.80676 22.8038 9.73207 23.1596 12.3452 22.3657C14.9142 21.5851 16.9915 19.7646 17.9372 17.4649C18.5188 16.0504 18.658 14.5094 18.3156 13.2739C17.5879 10.6478 15.1196 6.73099 11.2258 2.0232C9.90581 0.427325 9.76503 0.2859 9.49963 0.28924C9.43309 0.290076 9.32231 0.318598 9.25345 0.352613Z" fill="url(#paint0_linear_2_189)"/>
<defs>
<linearGradient id="paint0_linear_2_189" x1="0.263158" y1="14.9768" x2="21.8824" y2="19.7376" gradientUnits="userSpaceOnUse">
<stop stop-color="#FCB346"/>
<stop offset="1" stop-color="#FFC85F"/>
</linearGradient>
</defs>
</svg>
