<svg width="26" height="26" viewBox="0 0 26 26" fill="none" xmlns="http://www.w3.org/2000/svg">
<path fill-rule="evenodd" clip-rule="evenodd" d="M12.0207 0.0244662C10.0939 0.208995 8.66081 0.616514 7.03835 1.44126C5.11639 2.41816 3.39174 3.96299 2.13421 5.83394C1.60176 6.62611 0.951105 7.96344 0.638692 8.90773C0.386525 9.66993 0.186215 10.5373 0.0637917 11.3972C-0.0212639 11.9948 -0.0212639 14.0005 0.0637917 14.5981C0.276812 16.0946 0.672603 17.4055 1.29097 18.6626C1.99058 20.0849 2.67586 21.0404 3.8072 22.171C4.9262 23.2892 5.89724 23.9875 7.26713 24.6591C8.22298 25.1277 8.84013 25.3557 9.80914 25.5986C12.3519 26.236 14.9021 26.1138 17.3863 25.2355C18.1393 24.9693 19.4539 24.3109 20.1297 23.8616C21.649 22.8512 23.0438 21.4223 24.0391 19.8565C24.4053 19.2804 24.9938 18.065 25.2339 17.389C26.4282 14.0257 26.2203 10.416 24.6507 7.26195C24.0172 5.9891 23.312 4.99151 22.3219 3.96761C21.2239 2.83208 20.1469 2.04865 18.7062 1.33726C17.2002 0.593702 15.7971 0.196802 14.1306 0.042909C13.6126 -0.00489994 12.4351 -0.0152137 12.0207 0.0244662ZM13.4922 5.5419C13.6113 5.60485 13.7808 5.75569 13.8688 5.87712L14.0289 6.09793L14.0426 9.58584L14.0564 13.0738L16.716 15.7412C18.996 18.0277 19.3842 18.4384 19.435 18.6177C19.5258 18.9383 19.5066 19.1511 19.3608 19.4435C19.1329 19.9006 18.6546 20.1225 18.1493 20.0055C17.9005 19.948 17.8052 19.859 15.0038 17.0689C13.3855 15.4571 12.0714 14.1079 12.016 14.0013C11.9202 13.8169 11.9176 13.6896 11.9308 9.95379L11.9444 6.09666L12.0969 5.88027C12.4049 5.44334 13.0224 5.29361 13.4922 5.5419Z" fill="url(#paint0_linear_2_424)"/>
<defs>
<linearGradient id="paint0_linear_2_424" x1="-0.342105" y1="16.978" x2="30.0953" y2="25.3535" gradientUnits="userSpaceOnUse">
<stop stop-color="#FCB346"/>
<stop offset="1" stop-color="#FFC85F"/>
</linearGradient>
</defs>
</svg>
