<svg xmlns="http://www.w3.org/2000/svg" width="27" height="26.906"><path fill-rule="evenodd" clip-rule="evenodd" fill="#FFF" d="M27 13.057c-.075 7.337-6.084 13.224-13.421 13.149a13.28 13.28 0 01-6.241-1.63L0 26.906l2.393-7.059a12.994 12.994 0 01-1.9-6.79C.603 5.736 6.626-.108 13.945.002 21.11.109 26.893 5.892 27 13.057M13.746 2.007C7.618 1.983 2.629 6.929 2.602 13.057c0 2.334.743 4.607 2.122 6.49l-1.392 4.1 4.282-1.36C12.692 25.706 19.581 24.36 23 19.282c3.418-5.079 2.073-11.967-3.005-15.385a11.078 11.078 0 00-6.249-1.89m6.693 14.08a1.84 1.84 0 00-.623-.38c-.325-.15-1.923-.94-2.22-1.04a.5.5 0 00-.732.16c-.216.32-.839 1.05-1.029 1.26a.5.5 0 01-.7.08 8.812 8.812 0 01-2.612-1.601 9.687 9.687 0 01-1.808-2.229.47.47 0 01.132-.653l.011-.007c.146-.141.325-.37.487-.561.135-.163.244-.344.325-.54a.577.577 0 00-.027-.559c-.081-.17-.732-1.75-1-2.401-.268-.649-.541-.529-.731-.529-.19 0-.406-.03-.623-.03a1.199 1.199 0 00-.867.4 3.616 3.616 0 00-1.136 2.69 6.19 6.19 0 001.326 3.33c.163.22 2.247 3.58 5.55 4.87s3.3.86 3.9.81a3.291 3.291 0 002.193-1.54 2.66 2.66 0 00.184-1.53"/></svg>