<svg width="42" height="31" viewBox="0 0 42 31" fill="none" xmlns="http://www.w3.org/2000/svg">
<g filter="url(#filter0_f_2_114)">
<rect x="5.50408" y="6.04858" width="30.8401" height="18.902" rx="9.45101" fill="url(#paint0_linear_2_114)"/>
</g>
<rect x="3.51522" y="2.06934" width="34.8195" height="22.8814" rx="11.4407" fill="url(#paint1_linear_2_114)"/>
<rect x="3.266" y="1.07446" width="34.8195" height="22.8814" rx="11.4407" fill="url(#paint2_linear_2_114)"/>
<path fill-rule="evenodd" clip-rule="evenodd" d="M25.285 8.02059C24.1756 6.90995 22.7004 6.29804 21.1286 6.29736C17.8899 6.29736 15.254 8.93309 15.2527 12.1728C15.2523 13.2083 15.5229 14.2191 16.0371 15.1103L15.2035 18.155L18.3183 17.3379C19.1766 17.806 20.1428 18.0528 21.1262 18.0531H21.1286C24.3669 18.0531 27.0031 15.4171 27.0044 12.1773C27.005 10.6074 26.3943 9.13118 25.285 8.02059ZM21.1286 17.0608H21.1267C20.2503 17.0605 19.3908 16.825 18.641 16.38L18.4627 16.2743L16.6143 16.7591L17.1076 14.9569L16.9915 14.7721C16.5027 13.9946 16.2444 13.0959 16.2448 12.173C16.2459 9.48038 18.4367 7.28974 21.1306 7.28974C22.435 7.29019 23.6612 7.79882 24.5833 8.722C25.5053 9.64512 26.0128 10.8721 26.0123 12.1771C26.0112 14.8699 23.8204 17.0608 21.1286 17.0608ZM23.8074 13.4031C23.6606 13.3296 22.9389 12.9744 22.8043 12.9254C22.6697 12.8765 22.5718 12.852 22.4739 12.999C22.3761 13.146 22.0947 13.4766 22.009 13.5747C21.9234 13.6726 21.8377 13.6849 21.691 13.6113C21.5441 13.5379 21.0711 13.3828 20.5103 12.8826C20.0739 12.4934 19.7792 12.0126 19.6936 11.8656C19.6079 11.7186 19.6844 11.6391 19.7579 11.5659C19.824 11.5001 19.9048 11.3944 19.9782 11.3087C20.0516 11.223 20.0761 11.1617 20.125 11.0638C20.174 10.9658 20.1495 10.88 20.1127 10.8066C20.0761 10.733 19.7824 10.0104 19.6601 9.71641C19.5409 9.43018 19.4199 9.46891 19.3298 9.46438C19.2442 9.46014 19.1463 9.45918 19.0483 9.45918C18.9505 9.45918 18.7915 9.49593 18.6569 9.64291C18.5223 9.7899 18.143 10.1451 18.143 10.8678C18.143 11.5904 18.6691 12.2885 18.7425 12.3865C18.8159 12.4845 19.7778 13.9674 21.2505 14.6034C21.6007 14.7547 21.8742 14.8449 22.0875 14.9127C22.4392 15.0244 22.7593 15.0086 23.0122 14.9708C23.2943 14.9287 23.8808 14.6156 24.0032 14.2727C24.1255 13.9297 24.1255 13.6358 24.0888 13.5745C24.0521 13.5134 23.9543 13.4766 23.8074 13.4031Z" fill="#FFFAFA"/>
<defs>
<filter id="filter0_f_2_114" x="0.167829" y="0.712337" width="41.5126" height="29.5746" filterUnits="userSpaceOnUse" color-interpolation-filters="sRGB">
<feFlood flood-opacity="0" result="BackgroundImageFix"/>
<feBlend mode="normal" in="SourceGraphic" in2="BackgroundImageFix" result="shape"/>
<feGaussianBlur stdDeviation="2.66812" result="effect1_foregroundBlur_2_114"/>
</filter>
<linearGradient id="paint0_linear_2_114" x1="6.38522" y1="24.9506" x2="37.961" y2="7.10814" gradientUnits="userSpaceOnUse">
<stop stop-color="#27D045"/>
<stop offset="1" stop-color="#5FFC7B"/>
</linearGradient>
<linearGradient id="paint1_linear_2_114" x1="4.51006" y1="24.9507" x2="41.3192" y2="5.55128" gradientUnits="userSpaceOnUse">
<stop stop-color="#25C040"/>
<stop offset="1" stop-color="#55EB70"/>
</linearGradient>
<linearGradient id="paint2_linear_2_114" x1="4.26084" y1="23.9558" x2="41.07" y2="4.55641" gradientUnits="userSpaceOnUse">
<stop stop-color="#27D045"/>
<stop offset="1" stop-color="#5FFC7B"/>
</linearGradient>
</defs>
</svg>
